<svg width="317" height="62" viewBox="0 0 317 62" fill="none" xmlns="http://www.w3.org/2000/svg">
    <!-- Defining a gradient for king piece -->
    <defs>
        <linearGradient id="gradient" x1="0%" y1="0%" x2="100%" y2="0%">
            <stop offset="0%" style="stop-color:#4CAF50;stop-opacity:1"/>
            <stop offset="100%" style="stop-color:#ffffff;stop-opacity:1"/>
        </linearGradient>
    </defs>
    <!-- Dark background with rounded corners -->
    <rect x="3" y="3" width="311" height="56" rx="12" fill="#121212"/>
    <!-- Chessboard pattern with alternating squares -->
    <g opacity="0.3">
        <rect x="15" y="10" width="8" height="8" fill="#ffffff"/>
        <rect x="31" y="10" width="8" height="8" fill="#ffffff"/>
        <rect x="15" y="26" width="8" height="8" fill="#ffffff"/>
        <rect x="31" y="26" width="8" height="8" fill="#ffffff"/>
        <rect x="23" y="18" width="8" height="8" fill="#ffffff"/>
        <rect x="39" y="18" width="8" height="8" fill="#ffffff"/>
        <rect x="23" y="34" width="8" height="8" fill="#ffffff"/>
        <rect x="39" y="34" width="8" height="8" fill="#ffffff"/>
    </g>
    <!-- Stylized king chess piece with clear crown shape -->
    <path d="M50 42 L47 42 L47 32 L45 32 L45 27 L43 27 L43 22 L45 22 L45 17 L47 17 L47 15 L50 12 L53 15 L53 17 L55 17 L55 22 L57 22 L57 27 L55 27 L55 32 L53 32 L53 42 L50 42 Z M47 15 L53 15" fill="url(#gradient)"/>
    <!-- FICS Simple Interface text -->
    <text x="70" y="38" font-family="Helvetica, sans-serif" font-size="20" font-weight="900" letter-spacing="1" fill="#ffffff">Simple FICS Interface</text>
    <!-- Glowing connection nodes for tech vibe -->
    <circle cx="277" cy="15" r="3" fill="#4CAF50">
        <animate attributeName="opacity" values="1;0.4;1" dur="2s" repeatCount="indefinite"/>
    </circle>
    <circle cx="292" cy="15" r="3" fill="#4CAF50">
        <animate attributeName="opacity" values="1;0.4;1" dur="2s" begin="0.5s" repeatCount="indefinite"/>
    </circle>
</svg>